<svg width="82" height="83" xmlns="http://www.w3.org/2000/svg" xmlns:xlink="http://www.w3.org/1999/xlink" overflow="hidden"><defs><clipPath id="clip0"><rect x="2159" y="1196" width="82" height="83"/></clipPath></defs><g clip-path="url(#clip0)" transform="translate(-2159 -1196)"><path d="M2224.11 1207 2175.89 1207C2172.1 1207 2169 1210.05 2169 1213.78L2169 1261.22C2169 1264.95 2172.1 1268 2175.89 1268L2224.11 1268C2227.9 1268 2231 1264.95 2231 1261.22L2231 1213.78C2231 1210.05 2227.9 1207 2224.11 1207ZM2195.56 1252.04C2194.21 1253.36 2192.04 1253.36 2190.7 1252.04L2178.33 1239.87C2176.99 1238.55 2176.99 1236.42 2178.33 1235.09 2179.68 1233.77 2181.85 1233.77 2183.19 1235.09L2193.11 1244.85 2216.81 1221.54C2218.15 1220.22 2220.32 1220.22 2221.67 1221.54 2223.01 1222.86 2223.01 1224.99 2221.67 1226.32L2195.56 1252.04Z" fill="#808182" fill-rule="evenodd"/><rect x="2175" y="1213" width="51.0002" height="48.9998" fill="#808182"/></g></svg>