<svg width="2074" height="746" xmlns="http://www.w3.org/2000/svg" xmlns:xlink="http://www.w3.org/1999/xlink" overflow="hidden"><defs><clipPath id="clip0"><rect x="1565" y="295" width="2074" height="746"/></clipPath></defs><g clip-path="url(#clip0)" transform="translate(-1565 -295)"><path d="M2131 332 2193.86 332 2193.86 710.176C2193.86 715.377 2195.64 719.762 2199.21 723.332 2202.77 726.901 2206.94 728.686 2211.71 728.686L2509.29 728.686C2514 728.686 2518.15 726.885 2521.74 723.282 2525.34 719.68 2527.14 715.311 2527.14 710.176L2527.14 332 2590 332 2590 710.176C2590 732.648 2582.16 751.736 2566.48 767.442 2550.79 783.147 2531.73 791 2509.29 791L2211.71 791C2189.2 791 2170.13 783.164 2154.48 767.491 2138.83 751.819 2131 732.714 2131 710.176L2131 332Z" fill="#D9D9D9" fill-rule="evenodd"/><path d="M2651 332 2729.33 332 3048.01 721.23 3048.01 332 3111 332 3111 791 3032.68 791 2713.99 401.137 2713.99 791 2651 791 2651 332Z" fill="#D9D9D9" fill-rule="evenodd"/><path d="M2139 882.205C2139 852.268 2163.27 828 2193.2 828L3584.8 828C3614.73 828 3639 852.268 3639 882.205L3639 985.795C3639 1015.73 3614.73 1040 3584.8 1040L2193.2 1040C2163.27 1040 2139 1015.73 2139 985.795Z" fill="#D9D9D9" fill-rule="evenodd"/><path d="M3506.87 295 3639 356.722 3506.87 418.445 3506.87 394.453 3250.77 394.453C3245.93 394.453 3241.74 396.222 3238.2 399.761 3234.66 403.3 3232.89 407.491 3232.89 412.334L3232.89 710.206C3232.89 715.405 3234.68 719.789 3238.24 723.357 3241.81 726.925 3245.99 728.709 3250.77 728.709L3628.08 728.709 3628.08 791 3250.77 791C3228.25 791 3209.15 783.167 3193.49 767.5 3177.83 751.833 3170 732.735 3170 710.206L3170 412.334C3170 390.16 3177.82 371.257 3193.45 355.623 3209.08 339.99 3228.19 332.173 3250.77 332.173L3506.87 332.173Z" fill="#D9D9D9" fill-rule="evenodd"/><path d="M2020.21 332 2088 332 2088 582.263 2088 602.075 2088 960.222C2088 982.681 2079.54 1001.76 2062.63 1017.46 2045.72 1033.15 2025.16 1041 2000.96 1041L1680.04 1041C1655.77 1041 1635.2 1033.17 1618.32 1017.5 1601.44 1001.84 1593 982.747 1593 960.222L1593 901.759 1660.79 901.759 1660.79 960.222C1660.79 965.42 1662.71 969.803 1666.56 973.37 1670.4 976.938 1674.89 978.722 1680.04 978.722L2000.96 978.722C2006.03 978.722 2010.51 976.921 2014.39 973.321 2018.27 969.72 2020.21 965.354 2020.21 960.222L2020.21 582.263 2020.21 582.263Z" fill="#D9D9D9" fill-rule="evenodd"/><path d="M1565 914 1627 782 1689 914Z" fill="#D9D9D9" fill-rule="evenodd"/></g></svg>